<?xml version="1.0" encoding="utf-8"?>
<svg xmlns="http://www.w3.org/2000/svg" xmlns:xlink="http://www.w3.org/1999/xlink" style="margin: auto; background: none; display: block; shape-rendering: auto;" width="200px" height="200px" viewBox="0 0 100 100" preserveAspectRatio="xMidYMid">
<g transform="rotate(0 50 50)">
  <rect x="46" y="24" rx="4" ry="6" width="8" height="12" fill="#9fd18b">
    <animate attributeName="opacity" values="1;0" keyTimes="0;1" dur="0.4s" begin="-0.36666666666666664s" repeatCount="indefinite"></animate>
  </rect>
</g><g transform="rotate(30 50 50)">
  <rect x="46" y="24" rx="4" ry="6" width="8" height="12" fill="#9fd18b">
    <animate attributeName="opacity" values="1;0" keyTimes="0;1" dur="0.4s" begin="-0.3333333333333333s" repeatCount="indefinite"></animate>
  </rect>
</g><g transform="rotate(60 50 50)">
  <rect x="46" y="24" rx="4" ry="6" width="8" height="12" fill="#9fd18b">
    <animate attributeName="opacity" values="1;0" keyTimes="0;1" dur="0.4s" begin="-0.3s" repeatCount="indefinite"></animate>
  </rect>
</g><g transform="rotate(90 50 50)">
  <rect x="46" y="24" rx="4" ry="6" width="8" height="12" fill="#9fd18b">
    <animate attributeName="opacity" values="1;0" keyTimes="0;1" dur="0.4s" begin="-0.26666666666666666s" repeatCount="indefinite"></animate>
  </rect>
</g><g transform="rotate(120 50 50)">
  <rect x="46" y="24" rx="4" ry="6" width="8" height="12" fill="#9fd18b">
    <animate attributeName="opacity" values="1;0" keyTimes="0;1" dur="0.4s" begin="-0.23333333333333334s" repeatCount="indefinite"></animate>
  </rect>
</g><g transform="rotate(150 50 50)">
  <rect x="46" y="24" rx="4" ry="6" width="8" height="12" fill="#9fd18b">
    <animate attributeName="opacity" values="1;0" keyTimes="0;1" dur="0.4s" begin="-0.2s" repeatCount="indefinite"></animate>
  </rect>
</g><g transform="rotate(180 50 50)">
  <rect x="46" y="24" rx="4" ry="6" width="8" height="12" fill="#9fd18b">
    <animate attributeName="opacity" values="1;0" keyTimes="0;1" dur="0.4s" begin="-0.16666666666666666s" repeatCount="indefinite"></animate>
  </rect>
</g><g transform="rotate(210 50 50)">
  <rect x="46" y="24" rx="4" ry="6" width="8" height="12" fill="#9fd18b">
    <animate attributeName="opacity" values="1;0" keyTimes="0;1" dur="0.4s" begin="-0.13333333333333333s" repeatCount="indefinite"></animate>
  </rect>
</g><g transform="rotate(240 50 50)">
  <rect x="46" y="24" rx="4" ry="6" width="8" height="12" fill="#9fd18b">
    <animate attributeName="opacity" values="1;0" keyTimes="0;1" dur="0.4s" begin="-0.1s" repeatCount="indefinite"></animate>
  </rect>
</g><g transform="rotate(270 50 50)">
  <rect x="46" y="24" rx="4" ry="6" width="8" height="12" fill="#9fd18b">
    <animate attributeName="opacity" values="1;0" keyTimes="0;1" dur="0.4s" begin="-0.06666666666666667s" repeatCount="indefinite"></animate>
  </rect>
</g><g transform="rotate(300 50 50)">
  <rect x="46" y="24" rx="4" ry="6" width="8" height="12" fill="#9fd18b">
    <animate attributeName="opacity" values="1;0" keyTimes="0;1" dur="0.4s" begin="-0.03333333333333333s" repeatCount="indefinite"></animate>
  </rect>
</g><g transform="rotate(330 50 50)">
  <rect x="46" y="24" rx="4" ry="6" width="8" height="12" fill="#9fd18b">
    <animate attributeName="opacity" values="1;0" keyTimes="0;1" dur="0.4s" begin="0s" repeatCount="indefinite"></animate>
  </rect>
</g>
<!-- [ldio] generated by https://loading.io/ --></svg>